<svg width="36" height="36" viewBox="0 0 36 36" fill="none" xmlns="http://www.w3.org/2000/svg">
<path d="M24.9608 15.1137C24.9272 14.3683 24.8068 13.8583 24.6359 13.4127C24.4567 12.9532 24.2187 12.5608 23.8294 12.1741C23.4401 11.7874 23.0508 11.5436 22.5915 11.3671C22.1463 11.1934 21.6365 11.0757 20.8916 11.042C20.1439 11.0084 19.9058 11 18.007 11C16.1054 11 15.8674 11.0084 15.1224 11.042C14.3775 11.0757 13.8678 11.1962 13.4225 11.3671C12.9604 11.5464 12.5683 11.7846 12.1819 12.1741C11.7954 12.5637 11.5517 12.9532 11.3753 13.4127C11.2045 13.8583 11.084 14.3683 11.0504 15.1137C11.0168 15.8619 11.0084 16.1001 11.0084 18C11.0084 19.9027 11.0168 20.1409 11.0504 20.8863C11.084 21.6317 11.2045 22.1417 11.3753 22.5873C11.5545 23.0468 11.7926 23.4392 12.1819 23.8259C12.5683 24.2154 12.9604 24.4564 13.4197 24.6329C13.865 24.8066 14.3747 24.9243 15.1196 24.958C15.8674 24.9916 16.1054 25 18.0042 25C19.9058 25 20.1439 24.9916 20.8888 24.958C21.6337 24.9243 22.1434 24.8038 22.5887 24.6329C23.048 24.4536 23.4401 24.2154 23.8266 23.8259C24.2131 23.4363 24.4567 23.0468 24.6331 22.5873C24.8068 22.1417 24.9244 21.6317 24.958 20.8863C24.9916 20.1381 25 19.8999 25 18C25 16.1001 24.9944 15.8591 24.9608 15.1137ZM23.7034 20.8303C23.6726 21.514 23.5577 21.8867 23.4625 22.1305C23.3365 22.4556 23.1825 22.691 22.936 22.9376C22.6896 23.1841 22.4571 23.3327 22.1294 23.4644C21.883 23.5596 21.5105 23.6745 20.83 23.7054C20.0934 23.739 19.8722 23.7474 18.0014 23.7474C16.1306 23.7474 15.9094 23.739 15.1729 23.7054C14.4895 23.6745 14.117 23.5596 13.8734 23.4644C13.5485 23.3383 13.3133 23.1841 13.0668 22.9376C12.8204 22.691 12.672 22.4584 12.5403 22.1305C12.4451 21.8839 12.3303 21.5112 12.2995 20.8303C12.2659 20.0933 12.2575 19.8719 12.2575 18C12.2575 16.1281 12.2659 15.9067 12.2995 15.1697C12.3303 14.486 12.4451 14.1133 12.5403 13.8695C12.6664 13.5444 12.8204 13.309 13.0668 13.0625C13.3133 12.8159 13.5457 12.6673 13.8734 12.5356C14.1198 12.4404 14.4923 12.3255 15.1729 12.2946C15.9094 12.261 16.1306 12.2526 18.0014 12.2526C19.8722 12.2526 20.0934 12.261 20.83 12.2946C21.5133 12.3255 21.8858 12.4404 22.1294 12.5356C22.4543 12.6617 22.6896 12.8159 22.936 13.0625C23.1825 13.309 23.3309 13.5416 23.4625 13.8695C23.5577 14.1161 23.6726 14.4888 23.7034 15.1697C23.737 15.9067 23.7454 16.1281 23.7454 18C23.7454 19.8719 23.7342 20.0933 23.7034 20.8303Z" fill="white"/>
<path d="M18.0014 14.4019C16.013 14.4019 14.4055 16.0131 14.4055 17.9999C14.4055 19.9895 16.0158 21.598 18.0014 21.598C19.987 21.598 21.5974 19.9839 21.5974 17.9999C21.5974 16.0103 19.9898 14.4019 18.0014 14.4019ZM18.0014 20.3342C16.7132 20.3342 15.6686 19.289 15.6686 17.9999C15.6686 16.7109 16.7132 15.6657 18.0014 15.6657C19.2897 15.6657 20.3343 16.7109 20.3343 17.9999C20.3343 19.289 19.2897 20.3342 18.0014 20.3342Z" fill="white"/>
<path d="M21.7374 15.1022C22.2014 15.1022 22.5776 14.7259 22.5776 14.2616C22.5776 13.7973 22.2014 13.4209 21.7374 13.4209C21.2734 13.4209 20.8972 13.7973 20.8972 14.2616C20.8972 14.7259 21.2734 15.1022 21.7374 15.1022Z" fill="white"/>
<path d="M11 18C11 19.9027 11.0084 20.1409 11.042 20.8863C11.0756 21.6317 11.196 22.1417 11.3669 22.5873C11.5461 23.0468 11.7842 23.4392 12.1734 23.8259C12.5599 24.2126 12.952 24.4564 13.4113 24.6329C13.8566 24.8066 14.3663 24.9243 15.1112 24.958C15.859 24.9916 16.097 25 17.9958 25C19.8974 25 20.1354 24.9916 20.8804 24.958C21.6253 24.9243 22.135 24.8038 22.5803 24.6329C23.0396 24.4536 23.4317 24.2154 23.8182 23.8259C24.2046 23.4392 24.4483 23.0468 24.6247 22.5873C24.7984 22.1417 24.916 21.6317 24.9496 20.8863C24.9832 20.1381 24.9916 19.8999 24.9916 18C24.9916 16.0973 24.9832 15.8591 24.9496 15.1137C24.916 14.3683 24.7956 13.8583 24.6247 13.4127C24.4455 12.9532 24.2074 12.5608 23.8182 12.1741C23.4345 11.7846 23.0424 11.5436 22.5831 11.3671C22.1378 11.1934 21.6281 11.0757 20.8832 11.042C20.1354 11.0084 19.8974 11 17.9986 11C16.097 11 15.859 11.0084 15.114 11.042C14.3691 11.0757 13.8594 11.1962 13.4141 11.3671C12.9548 11.5464 12.5627 11.7846 12.1762 12.1741C11.7898 12.5637 11.5461 12.9532 11.3697 13.4127C11.196 13.8583 11.0756 14.3683 11.042 15.1137C11.0084 15.8591 11 16.0973 11 18ZM12.2631 18C12.2631 16.1309 12.2715 15.9067 12.3051 15.1697C12.3359 14.486 12.4507 14.1133 12.5459 13.8695C12.6719 13.5444 12.826 13.309 13.0724 13.0625C13.3189 12.8159 13.5513 12.6673 13.879 12.5356C14.1254 12.4404 14.4979 12.3255 15.1784 12.2946C15.915 12.261 16.1362 12.2526 18.007 12.2526C19.8778 12.2526 20.099 12.261 20.8356 12.2946C21.5189 12.3255 21.8914 12.4404 22.135 12.5356C22.4599 12.6617 22.6951 12.8159 22.9416 13.0625C23.188 13.309 23.3365 13.5416 23.4681 13.8695C23.5633 14.1161 23.6781 14.4888 23.7089 15.1697C23.7425 15.9067 23.7509 16.1281 23.7509 18C23.7509 19.8719 23.7425 20.0933 23.7089 20.8303C23.6781 21.514 23.5633 21.8867 23.4681 22.1305C23.3421 22.4556 23.188 22.691 22.9416 22.9376C22.6951 23.1841 22.4627 23.3327 22.135 23.4644C21.8886 23.5596 21.5161 23.6745 20.8356 23.7054C20.099 23.739 19.8778 23.7474 18.007 23.7474C16.1362 23.7474 15.915 23.739 15.1784 23.7054C14.4951 23.6745 14.1226 23.5596 13.879 23.4644C13.5541 23.3383 13.3189 23.1841 13.0724 22.9376C12.826 22.691 12.6775 22.4584 12.5459 22.1305C12.4507 21.8839 12.3359 21.5112 12.3051 20.8303C12.2687 20.0933 12.2631 19.8691 12.2631 18Z" fill="white"/>
<rect x="0.5" y="0.5" width="35" height="35" rx="17.5" stroke="white"/>
</svg>
