<svg width="36" height="36" viewBox="0 0 36 36" fill="none" xmlns="http://www.w3.org/2000/svg">
<g clip-path="url(#clip0_0_2695)">
<path d="M11 12.8675C11 12.4171 11.1577 12.0454 11.473 11.7527C11.7883 11.4599 12.1982 11.3135 12.7027 11.3135C13.1982 11.3135 13.5991 11.4576 13.9054 11.7459C14.2207 12.0432 14.3784 12.4306 14.3784 12.9081C14.3784 13.3405 14.2252 13.7009 13.9189 13.9892C13.6036 14.2864 13.1892 14.4351 12.6757 14.4351H12.6622C12.1667 14.4351 11.7658 14.2864 11.4595 13.9892C11.1531 13.6919 11 13.318 11 12.8675ZM11.1757 24.6919V15.6648H14.1757V24.6919H11.1757ZM15.8378 24.6919H18.8378V19.6513C18.8378 19.336 18.8739 19.0927 18.9459 18.9216C19.0721 18.6153 19.2635 18.3563 19.5203 18.1446C19.777 17.9328 20.0991 17.827 20.4865 17.827C21.4955 17.827 22 18.5072 22 19.8675V24.6919H25V19.5162C25 18.1828 24.6847 17.1716 24.0541 16.4824C23.4234 15.7932 22.5901 15.4486 21.5541 15.4486C20.3919 15.4486 19.4865 15.9486 18.8378 16.9486V16.9756H18.8243L18.8378 16.9486V15.6648H15.8378C15.8559 15.9531 15.8649 16.8495 15.8649 18.354C15.8649 19.8585 15.8559 21.9711 15.8378 24.6919Z" fill="white"/>
</g>
<rect x="0.5" y="0.5" width="35" height="35" rx="17.5" stroke="white"/>
<defs>
<clipPath id="clip0_0_2695">
<rect width="14" height="14" fill="white" transform="translate(11 11)"/>
</clipPath>
</defs>
</svg>
